<svg xmlns="http://www.w3.org/2000/svg" width="518.185" height="362.565" viewBox="0 0 518.185 362.565">
  <g id="undraw_interview_rmcf" transform="translate(0 -0.01)">
    <path id="Path_46" data-name="Path 46" d="M278.37,84.653c-21.064-8.011-43.322-14.7-66.045-13.861-33.41,1.233-65.481,20.031-81.187,47.634-13.326,23.387-14.97,50.8-20.71,76.751-7.064,31.971-20.619,62.364-35.092,92.079-7.772,15.964-15.973,32.272-17.25,49.77-1.768,24.295,10.644,48.5,30.112,64.663s45.32,24.687,71.269,26.546c13.808.989,28.238.072,40.5-5.941,12.977-6.362,22.436-17.857,35.465-24.127,12.073-5.812,26.2-6.625,39.752-5.869a188.623,188.623,0,0,1,51.9,10.324c18.946,6.653,36.564,16.294,55.444,23.043s40.024,10.515,59.344,4.885c18.163-5.291,32.5-18.139,45.43-31.149a552.125,552.125,0,0,0,57.939-68.535c11.667-16.351,22.526-33.6,27.684-52.657,9.865-36.435-3.709-77.54-33.816-102.422-24.945-20.614-58.421-29.562-91.19-34.992-29.882-4.952-64.434-5.258-91.941-18.163C329.746,110.31,305.877,95.12,278.37,84.653Z" transform="translate(-57.92 -70.71)" fill="#2030eb" opacity="0.1"/>
    <path id="Path_47" data-name="Path 47" d="M632.58,617.606v17.364h4.937l-.956-18.641Z" transform="translate(-330.231 -321.743)" fill="#aaabb0"/>
    <path id="Path_48" data-name="Path 48" d="M477.41,610.276v17.364h4.942L481.4,609Z" transform="translate(-249.226 -317.916)" fill="#aaabb0"/>
    <rect id="Rectangle_56" data-name="Rectangle 56" width="6.371" height="30.91" rx="3.186" transform="translate(308.085 263.682)" fill="#aaabb0"/>
    <rect id="Rectangle_57" data-name="Rectangle 57" width="6.371" height="37.759" rx="3.186" transform="translate(226.353 256.828)" fill="#aaabb0"/>
    <path id="Path_49" data-name="Path 49" d="M732.84,234.064s6.371-2.71,7.327,0,1.434,26.13,1.434,26.13h-6.056Z" transform="translate(-410.254 -155.353)" fill="#aaabb0"/>
    <path id="Path_50" data-name="Path 50" d="M577.266,234.064s-6.376-2.71-7.332,0-1.434,26.13-1.434,26.13h6.056Z" transform="translate(-324.462 -155.353)" fill="#aaabb0"/>
    <path id="Path_51" data-name="Path 51" d="M529.866,115.478l-.956,19.439h4.3V115Z" transform="translate(-276.111 -60.029)" fill="#aaabb0"/>
    <path id="Path_52" data-name="Path 52" d="M581.17,254.325l1.276-28.042s-.478-6.213,14.654-4.3,59.43,5.736,59.43,5.736v26.608Z" transform="translate(-331.077 -149.483)" fill="#33323d"/>
    <path id="Path_53" data-name="Path 53" d="M620.482,597.656l-2.39,42.854s-35.054,19.439-77.592.956l3.824-45.086Z" transform="translate(-309.845 -345.125)" fill="#33323d"/>
    <path id="Path_54" data-name="Path 54" d="M580.25,165.589l.793,27.722h49.393l-2.868-36.641Z" transform="translate(-302.913 -81.782)" fill="#444053"/>
    <rect id="Rectangle_58" data-name="Rectangle 58" width="46.525" height="58.947" transform="translate(235.831 234.206)" fill="#4c4981"/>
    <path id="Path_55" data-name="Path 55" d="M612.821,606.718s6.691-5.258,7.805-3.666-3.977,8.446-6.051,7.647S612.821,606.718,612.821,606.718Z" transform="translate(-347.59 -348.451)" fill="#ffb9b9"/>
    <rect id="Rectangle_59" data-name="Rectangle 59" width="305.403" height="152.948" transform="translate(145.544 103.245)" fill="#504f60"/>
    <path id="Path_56" data-name="Path 56" d="M580.34,143.123s-2.39-22.306,0-25.012S622.879,89.749,660,119.861c0,0,3.5.163,2.868,8.125a95.587,95.587,0,0,0,.076,15.137S583.05,148.859,580.34,143.123Z" transform="translate(-330.089 -88.788)" fill="#33323d"/>
    <path id="Path_57" data-name="Path 57" d="M580.34,143.123s-2.39-22.306,0-25.012S622.879,89.749,660,119.861c0,0,3.5.163,2.868,8.125a95.587,95.587,0,0,0,.076,15.137S583.05,148.859,580.34,143.123Z" transform="translate(-330.089 -88.788)" opacity="0.1"/>
    <path id="Path_58" data-name="Path 58" d="M580.34,149.123s-2.39-22.306,0-25.012S622.879,95.749,660,125.861c0,0,3.5.163,2.868,8.125a95.587,95.587,0,0,0,.076,15.137S583.05,154.859,580.34,149.123Z" transform="translate(-330.089 -91.92)" fill="#33323d"/>
    <path id="Path_59" data-name="Path 59" d="M733.177,169.05s2.548,9.559,1.754,11.151-.65,6.056-.65,6.056.172,2.868-1.1,3.183-2.39.478-1.357,1.434,0,2.39,0,2.39a7.446,7.446,0,0,0,0,3.666c.559,1.434-3.269,2.031-2.944,3.824s1.4,6.849,0,7.012.478,6.371-.779,6.371-2.151,11.151-2.151,11.151-8.842-7.485-14.736-5.415c0,0,.478-6.213,2.39-8.446s1.333-7.963,1.333-7.963l9.483-28.52Z" transform="translate(-398.962 -122.042)" fill="#4c4981"/>
    <path id="Path_60" data-name="Path 60" d="M641.474,407.891c-2.07,2.289-4.3-9.937-4.3-9.937s-5.893,8.125-9.717,2.71c-2.648-3.752-.559-14.382.956-20.552.679-2.744,1.252-4.608,1.252-4.608l8.6-1.434s.029,1.874.22,4.149c.258,3.073.817,6.887,2.008,7.8C642.593,387.6,643.549,405.582,641.474,407.891Z" transform="translate(-354.578 -229.07)" fill="#ae6e79"/>
    <path id="Path_61" data-name="Path 61" d="M622.645,140.509s-14.979-.158-18.641,7.805-3.824,10.678-5.258,11.949,15.61,7.968,15.61,7.968l.8,27.4a9.105,9.105,0,0,1,8.761-1.854c5.415,1.534,12.269,0,12.269,0s-.32-.578,4.144,0,18.64-6.907,18.64-6.907.234-11.987-.081-14.54S669,151.024,669,151.024s8.125-7.805-.315-10.515c0,0-2.987-4.5-10.673-4.459S622.645,140.509,622.645,140.509Z" transform="translate(-340.207 -104.814)" opacity="0.1"/>
    <path id="Path_62" data-name="Path 62" d="M622.645,139.509s-14.979-.158-18.641,7.805-3.824,10.678-5.258,11.949,15.61,7.968,15.61,7.968l.8,27.4a9.105,9.105,0,0,1,8.761-1.855c5.415,1.534,12.269,0,12.269,0s-.32-.578,4.144,0,18.64-6.907,18.64-6.907,5.573-9.081,5.258-11.629,11.151-21.829,11.151-21.829,1.754-10.195-6.691-12.9c0,0-2.987-4.5-10.673-4.459S622.645,139.509,622.645,139.509Z" transform="translate(-340.207 -104.292)" fill="#4c4981"/>
    <path id="Path_63" data-name="Path 63" d="M641,378.21c-3.284-1.023-8.436,1.233-10.075,1.912.679-2.743,1.252-4.608,1.252-4.608l8.6-1.434S640.79,375.954,641,378.21Z" transform="translate(-357.048 -229.075)" opacity="0.1"/>
    <path id="Path_64" data-name="Path 64" d="M602.993,185.71h-4.617s-.956,9.722,0,12.59,1.434,2.452,1.114,4.574,2.232,5.372,2.232,5.372.315,8.011,1.912,10.993-1.754,16.356-1.754,16.356a19.243,19.243,0,0,0,3.981,6.214c2.71,2.705,4.144,12.742,3.346,16.566a4.592,4.592,0,0,0,2.232,5.258s1.276,17.847,1.754,17.847,9.717-4.78,12.585-.64l-2.232-16.408.163-31.7s-3.03-3.986-1.434-7.49S621,213.446,621,213.446l-4.144-18.478Z" transform="translate(-339.837 -130.739)" fill="#4c4981"/>
    <path id="Path_65" data-name="Path 65" d="M537.616,712.014s-6.691-1.434-6.849,0-7.968,16.093,1.754,20.395,35.685,13.541,77.908,1.592c0,0,2.705.956,2.07-4.937s-.636-12.427-.636-12.427-6.376-1.754-11.156-1.114S554.345,724.6,537.616,712.014Z" transform="translate(-303.137 -405.157)" fill="#33323d"/>
    <path id="Path_66" data-name="Path 66" d="M537.616,712.014s-6.691-1.434-6.849,0-7.968,16.093,1.754,20.395,35.685,13.541,77.908,1.592c0,0,2.705.956,2.07-4.937s-.636-12.427-.636-12.427-6.376-1.754-11.156-1.114S554.345,724.6,537.616,712.014Z" transform="translate(-303.137 -405.157)" opacity="0.1"/>
    <path id="Path_67" data-name="Path 67" d="M537.616,708.014s-6.691-1.434-6.849,0-7.968,16.093,1.754,20.395,35.685,13.541,77.908,1.592c0,0,2.705.956,2.07-4.937s-.636-12.427-.636-12.427-6.376-1.754-11.156-1.114S554.345,720.6,537.616,708.014Z" transform="translate(-303.137 -403.069)" fill="#33323d"/>
    <path id="Path_68" data-name="Path 68" d="M628.5,196.646c-.411,2.337-1.343,4.584-1.486,6.95s.77,5.057,2.954,5.984a9.957,9.957,0,0,1,1.764.717,3.878,3.878,0,0,1,1.362,2.643,14.436,14.436,0,0,1,.167,3.929c-.119,1.319-.4,2.739.249,3.891,1.142,2.041,4.12,1.74,6.386,1.166l-.779,6.037a1.147,1.147,0,0,0,1.4,1.592,12.18,12.18,0,0,0,5.683-1.434,5.115,5.115,0,0,0,2.624-4.913c-.373-2.256-2.705-4.048-2.39-6.314.244-1.754,1.96-2.868,3.088-4.216a8.107,8.107,0,0,0,.55-9,10.245,10.245,0,0,0-7.877-4.837c-1.764-.177-3.6.038-5.258-.574a3.986,3.986,0,0,1-2.438-2.571" transform="translate(-355.001 -135.949)" fill="#444053"/>
    <path id="Path_69" data-name="Path 69" d="M513.84,623.775l1.668-3.632s9-8.388,11.074-8.976,10.515-3.15,11.791-3.15,24.539-1.276,24.539-1.276l2.705,6.376-29.194,6.41-9.841,7.169Z" transform="translate(-295.928 -350.533)" fill="#767d9f"/>
    <path id="Path_70" data-name="Path 70" d="M641.486,423.767,639.961,435.5l-.588,4.517-6.849.956s-.741-1.587-1.788-4.024c-3.178-7.4-9.163-22.655-5.693-25.289,4.612-3.508,5.736,8.125,5.736,8.125l5.258-2.552Z" transform="translate(-353.433 -248.349)" fill="#ffb9b9"/>
    <rect id="Rectangle_60" data-name="Rectangle 60" width="34.59" height="52.256" transform="translate(252.321 197.246)" fill="#fff"/>
    <rect id="Rectangle_61" data-name="Rectangle 61" width="34.59" height="52.256" transform="translate(252.321 197.246)" opacity="0.1"/>
    <rect id="Rectangle_62" data-name="Rectangle 62" width="34.59" height="52.256" transform="translate(268.239 195.018) rotate(8.41)" fill="#fff"/>
    <rect id="Rectangle_63" data-name="Rectangle 63" width="17.804" height="26.895" transform="translate(271.46 199.948) rotate(8.41)" fill="#2030eb"/>
    <rect id="Rectangle_64" data-name="Rectangle 64" width="21.57" height="5.841" transform="translate(265.638 234.125) rotate(8.41)" fill="#2030eb"/>
    <circle id="Ellipse_18" data-name="Ellipse 18" cx="19.993" cy="19.993" r="19.993" transform="translate(275.985 25.419)" opacity="0.1"/>
    <circle id="Ellipse_19" data-name="Ellipse 19" cx="19.993" cy="19.993" r="19.993" transform="translate(275.985 24.941)" fill="#ae6e79"/>
    <path id="Path_71" data-name="Path 71" d="M630.263,141.837a2.276,2.276,0,0,1,.139-1.544c.76-1.582,2.925-1.721,4.679-1.639,4.125.191,8.651.215,11.877-2.39,1.338-1.071,2.834-3.762,4.78-3.25,1.73.454,2.452,2.8,4.254,3.322,1.3.378,2.658-.225,3.986-.478a28.788,28.788,0,0,1,5.812-.048c1.941.014,4.048-.354,5.372-1.773,1.788-1.912,1.5-4.9,1.338-7.518a40.471,40.471,0,0,1,.684-10.1c.65-3.307,1.649-7.007-.177-9.841-1.74-2.7-5.344-3.441-7.805-5.511-2.3-1.912-3.523-4.976-5.955-6.749-3.064-2.232-7.227-1.912-10.993-1.525l-8.173.87c-2.108.225-4.3.478-6.037,1.735-3.131,2.266-3.561,6.973-6.524,9.454a26.556,26.556,0,0,1-4.512,2.466c-1.506.822-2.959,2.122-3.131,3.824-.143,1.434.631,2.758,1.008,4.139.894,3.3-.5,6.691-1.4,10.013s-1.066,7.356,1.529,9.559c.526.449,1.138.793,1.649,1.262,1.754,1.6,1.993,4.3,1.587,6.634" transform="translate(-350.77 -82.086)" fill="#444053"/>
    <ellipse id="Ellipse_20" data-name="Ellipse 20" cx="0.478" cy="1.195" rx="0.478" ry="1.195" transform="translate(297.13 67.517)" fill="#444053"/>
    <ellipse id="Ellipse_21" data-name="Ellipse 21" cx="0.478" cy="1.195" rx="0.478" ry="1.195" transform="translate(297.13 72.498)" fill="#444053"/>
    <path id="Path_72" data-name="Path 72" d="M653.321,432.534c.511-.588.851-2.1,1.047-4.091l-5.7-7.1S651.084,435.11,653.321,432.534Z" transform="translate(-366.314 -253.747)" fill="#ae6e79"/>
    <path id="Path_73" data-name="Path 73" d="M585.68,655.488s-9.349,14.453-38.557,12.9c-27.516-1.434-40.947-14.974-40.307-19.754s-1.754-16.413,4.139-19.759c3.417-1.936,7.915-.789,11.089.521a6.261,6.261,0,0,0,6.581-1.181c2.9-2.615,8.312-5.559,16.853-3.241a6.071,6.071,0,0,0,3.346-.062c3.556-1.085,12.021-2.968,18.163,1.214a6.214,6.214,0,0,0,6.653.253l.086-.053c2.868-1.754,16.251,14.817,16.251,14.817S590.617,653.9,585.68,655.488Z" transform="translate(-292.25 -359.304)" opacity="0.1"/>
    <path id="Path_74" data-name="Path 74" d="M585.68,656.488s-9.349,14.453-38.557,12.9c-27.516-1.434-40.947-14.975-40.307-19.754s-1.754-16.413,4.139-19.759c3.417-1.936,7.915-.789,11.089.521a6.261,6.261,0,0,0,6.581-1.181c2.9-2.614,8.312-5.559,16.853-3.24a6.071,6.071,0,0,0,3.346-.062c3.556-1.085,12.021-2.968,18.163,1.214a6.213,6.213,0,0,0,6.653.253l.086-.053c2.868-1.754,16.251,14.817,16.251,14.817S590.617,654.9,585.68,656.488Z" transform="translate(-292.25 -359.826)" fill="#767d9f"/>
    <circle id="Ellipse_22" data-name="Ellipse 22" cx="19.042" cy="19.042" r="19.042" transform="translate(235.831 264.237)" opacity="0.1"/>
    <circle id="Ellipse_23" data-name="Ellipse 23" cx="19.042" cy="19.042" r="19.042" transform="translate(235.831 264.715)" fill="#ffb9b9"/>
    <path id="Path_75" data-name="Path 75" d="M562.6,629.447a7.936,7.936,0,0,0-4.942,3.269c-.588,1.023-.793,2.251-1.644,3.1-1.2,1.209-3.236,1.233-4.866,1.912s-2.705,3.069-1.109,3.824a3.56,3.56,0,0,0-3.1,3.145,9.352,9.352,0,0,0,.932,4.5c1.826,4.7,3.79,9.612,7.815,12.958,6.558,5.458,16.442,5.2,25.251,4.627A4.13,4.13,0,0,0,583,666.3c.956-.631,1.075-1.84,1.233-2.9.664-4.531,3.121-8.646,4.727-12.972s2.266-9.406-.44-13.235C584.54,631.517,569.3,627.631,562.6,629.447Z" transform="translate(-313.182 -362.152)" fill="#b96b6b"/>
    <path id="Path_76" data-name="Path 76" d="M647.325,461.973l-.588,4.517-6.849.956s-.741-1.587-1.788-4.024l9.115-1.711Z" transform="translate(-360.796 -274.822)" opacity="0.1"/>
    <path id="Path_77" data-name="Path 77" d="M653.22,562.289l3.986-4.622-.8-25.49a41.348,41.348,0,0,0,.8-5.578c.158-2.71-1.993-8.761-1.993-8.761a18.98,18.98,0,0,1,1.353-3.508c.956-1.912-1.348-6.213-1.348-6.213s-3.432-11.151-2-16.729-.349-8.761-.349-8.761-1.4-6.214-1.243-8.761-3.188-4.942-3.188-4.942l-2.548-6.213L635.7,464.622V486.13s.636,20.552,0,24.538a14.574,14.574,0,0,0,1.271,7.805s-1.114,5.893-.158,8.125,2.868,7.647,2.868,7.647a12.427,12.427,0,0,0,.32,5.812c.956,2.791,0,4.383,0,4.383Z" transform="translate(-359.475 -275.344)" fill="#767d9f"/>
    <g id="Group_19" data-name="Group 19" transform="translate(268.143 27.67)" opacity="0.1">
      <path id="Path_78" data-name="Path 78" d="M731.712,133.676a40.462,40.462,0,0,0-.722,8.493,40.656,40.656,0,0,1,.741-7.055,27.3,27.3,0,0,0,.841-6.524,39.668,39.668,0,0,1-.86,5.085Z" transform="translate(-677.427 -128.59)"/>
      <path id="Path_79" data-name="Path 79" d="M622.7,173.906c-.511-.478-1.123-.813-1.649-1.267a6.56,6.56,0,0,1-2.1-4.78c-.139,2.39.349,4.7,2.1,6.213.526.454,1.138.8,1.649,1.267a5.841,5.841,0,0,1,1.73,3.991A6.564,6.564,0,0,0,622.7,173.906Z" transform="translate(-618.934 -149.09)"/>
      <path id="Path_80" data-name="Path 80" d="M622.229,136.556a9.011,9.011,0,0,0-.258-3.006c-.277-1.023-.774-2.022-.956-3.049a3.188,3.188,0,0,1-.053.344c-.139,1.434.636,2.758,1.008,4.139A8.127,8.127,0,0,1,622.229,136.556Z" transform="translate(-619.984 -129.587)"/>
      <path id="Path_81" data-name="Path 81" d="M677.068,171.506c-1.324,1.434-3.432,1.788-5.372,1.773a28.437,28.437,0,0,0-5.812.053c-1.329.268-2.681.865-3.986.478-1.8-.521-2.524-2.868-4.249-3.322-1.964-.516-3.46,2.175-4.78,3.245-3.226,2.581-7.753,2.557-11.877,2.39-1.754-.081-3.919.057-4.675,1.644a2.218,2.218,0,0,0-.139,1.544l-5.841.918a11.32,11.32,0,0,1-.158,1.434l6-.956a2.218,2.218,0,0,1,.139-1.544c.755-1.587,2.92-1.725,4.675-1.644,4.125.191,8.651.215,11.877-2.39,1.338-1.071,2.834-3.762,4.78-3.245,1.725.449,2.447,2.8,4.249,3.322,1.3.373,2.657-.225,3.986-.478a28.445,28.445,0,0,1,5.812-.053c1.941.014,4.048-.354,5.372-1.773s1.515-3.537,1.434-5.6A6.237,6.237,0,0,1,677.068,171.506Z" transform="translate(-624.805 -148.798)"/>
    </g>
    <g id="Group_20" data-name="Group 20" transform="translate(272.089 68.97)" opacity="0.1">
      <path id="Path_82" data-name="Path 82" d="M631.262,220.768a9.667,9.667,0,0,0-1.764-.717,4.564,4.564,0,0,1-2.309-2.361,5.114,5.114,0,0,0,2.786,3.8,9.667,9.667,0,0,1,1.764.717,2.647,2.647,0,0,1,.846.989A3.688,3.688,0,0,0,631.262,220.768Z" transform="translate(-627.19 -216.404)"/>
      <path id="Path_83" data-name="Path 83" d="M645.92,247.348c-2.2.559-5.081.851-6.29-1.018a3.284,3.284,0,0,0,.382,1.286c1.032,1.84,3.556,1.778,5.7,1.324Z" transform="translate(-633.684 -231.355)"/>
      <path id="Path_84" data-name="Path 84" d="M661.272,251.2a5.128,5.128,0,0,1-2.629,4.894,12.488,12.488,0,0,1-5.683,1.434,1.95,1.95,0,0,1-.927-.105,1.137,1.137,0,0,0,1.405,1.539,12.179,12.179,0,0,0,5.683-1.434,5.107,5.107,0,0,0,2.624-4.913,5.419,5.419,0,0,0-.473-1.415Z" transform="translate(-640.108 -233.898)"/>
      <path id="Path_85" data-name="Path 85" d="M670.95,215a7.867,7.867,0,0,1-1.434,6.763c-1.128,1.367-2.844,2.461-3.088,4.216a3.981,3.981,0,0,0,.478,2.328,3.1,3.1,0,0,1,0-.894c.244-1.754,1.96-2.868,3.088-4.216A8.041,8.041,0,0,0,670.95,215Z" transform="translate(-647.663 -215)"/>
    </g>
    <g id="Group_21" data-name="Group 21" transform="translate(233.708 266.634)" opacity="0.1">
      <path id="Path_86" data-name="Path 86" d="M553.74,638.236c1.625-.674,3.656-.7,4.866-1.912.851-.851,1.056-2.079,1.644-3.1a7.855,7.855,0,0,1,4.937-3.269c6.691-1.816,21.948,2.065,25.925,7.69a10.445,10.445,0,0,1,1.826,5.774,10.793,10.793,0,0,0-1.821-6.725c-3.977-5.626-19.219-9.507-25.925-7.69a7.894,7.894,0,0,0-4.937,3.269c-.588,1.018-.793,2.246-1.644,3.1-1.209,1.209-3.241,1.233-4.866,1.912-1.238.511-2.156,2.022-1.821,3.035A3.289,3.289,0,0,1,553.74,638.236Z" transform="translate(-549.481 -628.555)"/>
      <path id="Path_87" data-name="Path 87" d="M546.942,659.012a3.546,3.546,0,0,1,3.1-3.145,1.271,1.271,0,0,1-.731-.817,3.714,3.714,0,0,0-2.39,3.006,5.051,5.051,0,0,0,0,1.171A.818.818,0,0,0,546.942,659.012Z" transform="translate(-546.889 -642.386)"/>
    </g>
    <rect id="Rectangle_65" data-name="Rectangle 65" width="43.494" height="56.72" transform="translate(291.514 110.051)" fill="#fff"/>
    <rect id="Rectangle_66" data-name="Rectangle 66" width="43.494" height="56.72" transform="translate(291.514 110.051)" opacity="0.1"/>
    <rect id="Rectangle_67" data-name="Rectangle 67" width="43.494" height="56.72" transform="translate(308.762 120.753) rotate(-9.76)" fill="#fff"/>
    <rect id="Rectangle_68" data-name="Rectangle 68" width="10.219" height="13.326" transform="translate(319.151 158.859) rotate(-9.76)" fill="#2030eb"/>
    <rect id="Rectangle_69" data-name="Rectangle 69" width="10.219" height="13.326" transform="translate(333.087 156.46) rotate(-9.76)" fill="#2030eb"/>
    <rect id="Rectangle_70" data-name="Rectangle 70" width="35.835" height="13.385" transform="translate(317.687 141.55) rotate(-9.744)" fill="#2030eb"/>
    <rect id="Rectangle_71" data-name="Rectangle 71" width="35.835" height="2.986" transform="translate(314.743 125.805) rotate(-9.744)" fill="#2030eb"/>
    <rect id="Rectangle_72" data-name="Rectangle 72" width="35.835" height="2.986" transform="translate(315.901 131.219) rotate(-9.744)" fill="#2030eb"/>
    <path id="Path_88" data-name="Path 88" d="M705.047,268.71s-19.993,20.074-9.956,25.174,16.571-16.968,16.571-16.968l1.587-5.019Z" transform="translate(-389.076 -174.068)" fill="#ae6e79"/>
    <path id="Path_89" data-name="Path 89" d="M712.641,261.847l-2.471,5.458s12.188,1.711,14.736,5.4l-1.51-9.631-1.792-4.11Z" transform="translate(-398.419 -168.978)" opacity="0.1"/>
    <path id="Path_90" data-name="Path 90" d="M713.641,260.847l-2.471,5.458s12.188,1.711,14.736,5.4l-1.51-9.631-1.792-4.11Z" transform="translate(-398.942 -168.456)" fill="#4c4981"/>
    <path id="Path_91" data-name="Path 91" d="M812.493,403.26l-.263.182.363.163.392-.033.048-.272Z" transform="translate(-424.015 -210.512)" fill="#464a5f"/>
    <path id="Path_92" data-name="Path 92" d="M812.493,403.26l-.263.182.363.163.392-.033.048-.272Z" transform="translate(-424.015 -210.512)" opacity="0.1"/>
    <path id="Path_93" data-name="Path 93" d="M812.258,402.895l-.268.172-.21-.258.129-.21.12-.038Z" transform="translate(-423.78 -210.146)" fill="#9c9ca1"/>
    <path id="Path_94" data-name="Path 94" d="M812.258,402.895l-.268.172-.21-.258.129-.21.12-.038Z" transform="translate(-423.78 -210.146)" opacity="0.1"/>
    <path id="Path_95" data-name="Path 95" d="M895.469,372.889,875.9,344.628a2.328,2.328,0,0,0-3.241-.6l-43.619,29.94a2.337,2.337,0,0,0-.607,3.245l19.515,28.62Z" transform="translate(-459.945 -213.173)" fill="#9c9ca1"/>
    <path id="Path_96" data-name="Path 96" d="M895.469,372.889,875.9,344.628a2.328,2.328,0,0,0-3.241-.6l-43.619,29.94a2.337,2.337,0,0,0-.607,3.245l19.515,28.62Z" transform="translate(-459.945 -213.173)" opacity="0.1"/>
    <path id="Path_97" data-name="Path 97" d="M896.467,373.029,876.9,344.767a2.333,2.333,0,0,0-3.245-.6L830.04,374.128a2.342,2.342,0,0,0-.612,3.245l19.515,28.635Z" transform="translate(-460.466 -213.246)" fill="#9c9ca1"/>
    <path id="Path_98" data-name="Path 98" d="M934.689,410.989l-16.251-5.219L870.91,438.716l16.509,5.4a2.5,2.5,0,0,0,2.213-.335l45.191-31.909a.478.478,0,0,0-.134-.884Z" transform="translate(-482.332 -245.619)" fill="#464a5f"/>
    <path id="Path_99" data-name="Path 99" d="M934.689,410.989l-16.251-5.219L870.91,438.716l16.509,5.4a2.5,2.5,0,0,0,2.213-.335l45.191-31.909a.478.478,0,0,0-.134-.884Z" transform="translate(-482.332 -245.619)" opacity="0.1"/>
    <path id="Path_100" data-name="Path 100" d="M934.479,410.294l-16.251-5.224L870.7,438.016l16.509,5.391a2.481,2.481,0,0,0,2.213-.33l45.191-31.909a.478.478,0,0,0-.134-.875Z" transform="translate(-482.222 -245.253)" fill="#464a5f"/>
    <g id="Group_22" data-name="Group 22" transform="translate(381.22 146.682)" opacity="0.1">
      <path id="Path_101" data-name="Path 101" d="M949.881,400.264l-1.2-1.721a.478.478,0,0,0-.65-.119l-1.783,1.19a.478.478,0,0,0-.129.645l1.1,1.7a.478.478,0,0,0,.645.139l1.878-1.181A.478.478,0,0,0,949.881,400.264Z" transform="translate(-902.776 -388.425)"/>
      <path id="Path_102" data-name="Path 102" d="M943.178,404.909l-1.2-1.716a.478.478,0,0,0-.65-.119l-1.778,1.2a.478.478,0,0,0-.134.645l1.1,1.7a.478.478,0,0,0,.645.143l1.883-1.181a.478.478,0,0,0,.134-.669Z" transform="translate(-899.275 -390.853)"/>
      <path id="Path_103" data-name="Path 103" d="M936.134,409.779l-1.2-1.716a.478.478,0,0,0-.65-.12l-1.783,1.2a.478.478,0,0,0-.129.65l1.1,1.7a.478.478,0,0,0,.645.139L936,410.449a.478.478,0,0,0,.139-.669Z" transform="translate(-895.596 -393.395)"/>
      <path id="Path_104" data-name="Path 104" d="M929.011,414.717l-1.2-1.721a.478.478,0,0,0-.645-.12l-1.783,1.2a.478.478,0,0,0-.129.645l1.1,1.7a.478.478,0,0,0,.641.143l1.883-1.185a.478.478,0,0,0,.134-.664Z" transform="translate(-891.881 -395.971)"/>
      <path id="Path_105" data-name="Path 105" d="M921.888,419.65l-1.2-1.716a.478.478,0,0,0-.65-.12l-1.778,1.2a.478.478,0,0,0-.134.645l1.1,1.7a.478.478,0,0,0,.645.143l1.883-1.185a.478.478,0,0,0,.134-.664Z" transform="translate(-888.161 -398.547)"/>
      <path id="Path_106" data-name="Path 106" d="M914.808,424.687l-1.5-2.132a.215.215,0,0,0-.3-.057l-2.189,1.477a.215.215,0,0,0-.062.3l1.372,2.108a.22.22,0,0,0,.3.067l2.313-1.434a.22.22,0,0,0,.062-.33Z" transform="translate(-884.336 -401.014)"/>
      <path id="Path_107" data-name="Path 107" d="M907.678,429.617l-1.506-2.132a.22.22,0,0,0-.306-.057l-2.189,1.477a.22.22,0,0,0-.057.3l1.372,2.108a.21.21,0,0,0,.3.067l2.308-1.434a.215.215,0,0,0,.077-.33Z" transform="translate(-880.609 -403.587)"/>
      <path id="Path_108" data-name="Path 108" d="M901.38,434.014l-1.5-2.113a.22.22,0,0,0-.3-.053l-2.189,1.472a.225.225,0,0,0-.062.306l1.372,2.108a.225.225,0,0,0,.3.067l2.313-1.434a.22.22,0,0,0,.062-.354Z" transform="translate(-877.327 -405.895)"/>
      <path id="Path_109" data-name="Path 109" d="M894.318,438.873l-1.5-2.132a.22.22,0,0,0-.3-.053l-2.189,1.472a.22.22,0,0,0-.062.306l1.372,2.108a.225.225,0,0,0,.3.067l2.313-1.434a.225.225,0,0,0,.062-.335Z" transform="translate(-873.639 -408.422)"/>
      <path id="Path_110" data-name="Path 110" d="M887.478,443.567l-1.5-2.132a.215.215,0,0,0-.3-.057l-2.189,1.477a.215.215,0,0,0-.062.3l1.372,2.108a.22.22,0,0,0,.3.067l2.313-1.434a.22.22,0,0,0,.062-.33Z" transform="translate(-870.069 -410.87)"/>
      <path id="Path_111" data-name="Path 111" d="M880.654,448.348l-1.482-2.136a.22.22,0,0,0-.3-.053l-2.189,1.472a.22.22,0,0,0-.062.306l1.372,2.108a.225.225,0,0,0,.3.067l2.313-1.434a.22.22,0,0,0,.048-.33Z" transform="translate(-866.514 -413.366)"/>
      <path id="Path_112" data-name="Path 112" d="M873.8,453.077l-1.5-2.132a.215.215,0,0,0-.3-.057l-2.189,1.467a.215.215,0,0,0-.062.3l1.372,2.108a.22.22,0,0,0,.3.067l2.313-1.434a.22.22,0,0,0,.062-.32Z" transform="translate(-862.928 -415.835)"/>
      <path id="Path_113" data-name="Path 113" d="M945.393,393.754l-1.2-1.721a.478.478,0,0,0-.65-.12l-1.764,1.2a.478.478,0,0,0-.134.645l1.1,1.7a.478.478,0,0,0,.645.139l1.883-1.181A.478.478,0,0,0,945.393,393.754Z" transform="translate(-900.439 -385.027)"/>
      <path id="Path_114" data-name="Path 114" d="M935.528,379.516l-1.2-1.73a.478.478,0,0,0-.645-.12l-1.783,1.2a.478.478,0,0,0-.134.645l1.1,1.7a.478.478,0,0,0,.645.143l1.883-1.181A.478.478,0,0,0,935.528,379.516Z" transform="translate(-895.281 -377.59)"/>
      <path id="Path_115" data-name="Path 115" d="M938.671,398.4l-1.2-1.716a.478.478,0,0,0-.645-.119l-1.783,1.2a.478.478,0,0,0-.129.645l1.1,1.7a.478.478,0,0,0,.645.143l1.883-1.181a.478.478,0,0,0,.134-.669Z" transform="translate(-896.924 -387.456)"/>
      <path id="Path_116" data-name="Path 116" d="M931.625,403.269l-1.2-1.716a.478.478,0,0,0-.65-.119l-1.778,1.185a.478.478,0,0,0-.134.65l1.1,1.7a.478.478,0,0,0,.645.139l1.883-1.181A.478.478,0,0,0,931.625,403.269Z" transform="translate(-893.243 -389.996)"/>
      <path id="Path_117" data-name="Path 117" d="M924.5,408.2l-1.2-1.721a.478.478,0,0,0-.65-.119l-1.783,1.219a.478.478,0,0,0-.129.645l1.1,1.7a.478.478,0,0,0,.645.139l1.878-1.181a.478.478,0,0,0,.134-.679Z" transform="translate(-889.527 -392.57)"/>
      <path id="Path_118" data-name="Path 118" d="M928.978,384.4l-1.2-1.716a.478.478,0,0,0-.645-.119l-1.783,1.2a.478.478,0,0,0-.134.645l1.1,1.7a.478.478,0,0,0,.645.143l1.883-1.181a.478.478,0,0,0,.134-.669Z" transform="translate(-891.862 -380.148)"/>
      <path id="Path_119" data-name="Path 119" d="M921.938,389.274l-1.2-1.721a.478.478,0,0,0-.65-.119l-1.778,1.185a.478.478,0,0,0-.134.645l1.1,1.7a.478.478,0,0,0,.645.139l1.883-1.181A.478.478,0,0,0,921.938,389.274Z" transform="translate(-888.187 -382.688)"/>
      <path id="Path_120" data-name="Path 120" d="M914.811,394.208l-1.2-1.716a.478.478,0,0,0-.645-.124l-1.783,1.219a.478.478,0,0,0-.129.645l1.1,1.7a.478.478,0,0,0,.645.143l1.878-1.185a.478.478,0,0,0,.134-.679Z" transform="translate(-884.469 -385.266)"/>
      <path id="Path_121" data-name="Path 121" d="M917.4,413.138l-1.2-1.716a.478.478,0,0,0-.645-.124l-1.768,1.2a.478.478,0,0,0-.129.645l1.085,1.7a.478.478,0,0,0,.64.143l1.883-1.185a.478.478,0,0,0,.139-.664Z" transform="translate(-885.826 -395.148)"/>
      <path id="Path_122" data-name="Path 122" d="M910.258,418.07l-1.2-1.716a.478.478,0,0,0-.65-.12l-1.778,1.2a.478.478,0,0,0-.134.645l1.1,1.7a.478.478,0,0,0,.645.143l1.883-1.181a.478.478,0,0,0,.134-.669Z" transform="translate(-882.09 -397.723)"/>
      <path id="Path_123" data-name="Path 123" d="M903.178,423.107l-1.5-2.132a.215.215,0,0,0-.3-.057l-2.189,1.477a.215.215,0,0,0-.062.3L900.5,424.8a.215.215,0,0,0,.3.067l2.313-1.434a.22.22,0,0,0,.062-.33Z" transform="translate(-878.265 -400.189)"/>
      <path id="Path_124" data-name="Path 124" d="M896.875,427.478l-1.5-2.136a.22.22,0,0,0-.3-.053l-2.184,1.472a.225.225,0,0,0-.062.306l1.372,2.108a.225.225,0,0,0,.3.067l2.313-1.434a.21.21,0,0,0,.057-.33Z" transform="translate(-874.978 -402.471)"/>
      <path id="Path_125" data-name="Path 125" d="M889.808,432.363l-1.5-2.132a.22.22,0,0,0-.3-.053l-2.189,1.472a.215.215,0,0,0-.062.3l1.372,2.113a.225.225,0,0,0,.3.067l2.313-1.434a.225.225,0,0,0,.062-.335Z" transform="translate(-871.285 -405.023)"/>
      <path id="Path_126" data-name="Path 126" d="M882.968,437.1l-1.5-2.132a.215.215,0,0,0-.3-.057l-2.189,1.458a.215.215,0,0,0-.062.3l1.372,2.108a.22.22,0,0,0,.3.067l2.313-1.434a.22.22,0,0,0,.062-.311Z" transform="translate(-867.715 -407.492)"/>
      <path id="Path_127" data-name="Path 127" d="M926.941,396.5l-1.2-1.716a.478.478,0,0,0-.645-.12l-1.783,1.2a.478.478,0,0,0-.129.645l1.1,1.7a.478.478,0,0,0,.641.139l1.883-1.181a.478.478,0,0,0,.134-.669Z" transform="translate(-890.801 -386.465)"/>
      <path id="Path_128" data-name="Path 128" d="M919.808,401.434l-1.2-1.721a.478.478,0,0,0-.65-.12l-1.778,1.2a.478.478,0,0,0-.134.645l1.1,1.7a.478.478,0,0,0,.645.143l1.883-1.185a.478.478,0,0,0,.134-.664Z" transform="translate(-887.075 -389.036)"/>
      <path id="Path_129" data-name="Path 129" d="M912.7,406.37l-1.2-1.716a.478.478,0,0,0-.65-.12l-1.783,1.2a.478.478,0,0,0-.129.645l1.1,1.7a.478.478,0,0,0,.645.143l1.878-1.185a.478.478,0,0,0,.139-.664Z" transform="translate(-883.362 -391.615)"/>
      <path id="Path_130" data-name="Path 130" d="M905.571,411.3l-1.2-1.716a.478.478,0,0,0-.645-.12l-1.783,1.2a.478.478,0,0,0-.129.645l1.1,1.716a.478.478,0,0,0,.64.143l1.883-1.181a.478.478,0,0,0,.134-.688Z" transform="translate(-879.645 -394.191)"/>
      <path id="Path_131" data-name="Path 131" d="M898.54,416.337l-1.5-2.132a.215.215,0,0,0-.3-.057l-2.189,1.477a.22.22,0,0,0-.062.3l1.372,2.113a.215.215,0,0,0,.3.062l2.313-1.434a.22.22,0,0,0,.062-.33Z" transform="translate(-875.845 -396.655)"/>
      <path id="Path_132" data-name="Path 132" d="M892.19,420.707l-1.5-2.136a.225.225,0,0,0-.306-.053L888.2,419.99a.225.225,0,0,0-.062.306l1.372,2.108a.22.22,0,0,0,.3.067l2.313-1.434a.22.22,0,0,0,.062-.33Z" transform="translate(-872.529 -398.936)"/>
      <path id="Path_133" data-name="Path 133" d="M885.127,425.567l-1.5-2.137a.225.225,0,0,0-.306-.053l-2.189,1.472a.229.229,0,0,0-.062.306l1.377,2.108a.22.22,0,0,0,.3.067l2.309-1.434a.215.215,0,0,0,.067-.33Z" transform="translate(-868.841 -401.473)"/>
      <path id="Path_134" data-name="Path 134" d="M878.289,430.327l-1.5-2.132a.22.22,0,0,0-.306-.057l-2.189,1.477a.22.22,0,0,0-.057.3l1.372,2.108a.21.21,0,0,0,.3.067l2.309-1.434a.215.215,0,0,0,.067-.33Z" transform="translate(-865.272 -403.958)"/>
      <path id="Path_135" data-name="Path 135" d="M876.128,441.833l-1.5-2.132a.22.22,0,0,0-.3-.053l-2.189,1.472a.215.215,0,0,0-.062.3l1.372,2.113a.225.225,0,0,0,.3.067l2.313-1.434a.225.225,0,0,0,.062-.335Z" transform="translate(-864.144 -409.967)"/>
      <path id="Path_136" data-name="Path 136" d="M869.288,446.567l-1.5-2.132a.215.215,0,0,0-.3-.057l-2.189,1.477a.215.215,0,0,0-.062.3l1.372,2.108a.22.22,0,0,0,.3.067l2.313-1.434a.22.22,0,0,0,.062-.33Z" transform="translate(-860.573 -412.436)"/>
      <path id="Path_137" data-name="Path 137" d="M880.082,418.333l-1.434-2.007a.3.3,0,0,0-.406-.072l-2.065,1.391a.292.292,0,0,0-.081.406l1.291,1.983a.287.287,0,0,0,.4.091l2.184-1.372a.3.3,0,0,0,.11-.421Z" transform="translate(-866.234 -397.748)"/>
      <path id="Path_138" data-name="Path 138" d="M873.268,423.068l-1.41-2.007a.292.292,0,0,0-.406-.077l-2.065,1.415a.287.287,0,0,0-.081.4l1.291,1.988a.3.3,0,0,0,.4.091l2.184-1.372a.3.3,0,0,0,.086-.44Z" transform="translate(-862.689 -400.217)"/>
      <path id="Path_139" data-name="Path 139" d="M866.428,427.808l-1.41-2.012a.3.3,0,0,0-.406-.072l-2.065,1.391a.291.291,0,0,0-.081.406l1.291,1.984a.287.287,0,0,0,.4.091l2.184-1.372a.292.292,0,0,0,.086-.416Z" transform="translate(-859.118 -402.691)"/>
      <path id="Path_140" data-name="Path 140" d="M859.6,432.568l-1.5-2.136a.22.22,0,0,0-.3-.053l-2.189,1.472a.225.225,0,0,0-.062.306l1.372,2.108a.225.225,0,0,0,.3.067l2.313-1.434a.21.21,0,0,0,.062-.33Z" transform="translate(-855.516 -405.128)"/>
      <path id="Path_141" data-name="Path 141" d="M937.137,386.627l-1.3-1.84a.478.478,0,0,0-.65-.115l-5.057,3.542a.478.478,0,0,0-.124.64l1.219,1.883a.478.478,0,0,0,.664.129l5.133-3.59A.478.478,0,0,0,937.137,386.627Z" transform="translate(-894.367 -381.245)"/>
      <path id="Path_142" data-name="Path 142" d="M867.759,434.8l-1.587-2.242a.215.215,0,0,0-.306-.053l-5.458,3.824a.215.215,0,0,0-.057.3l1.491,2.309a.22.22,0,0,0,.311.062l5.549-3.886A.225.225,0,0,0,867.759,434.8Z" transform="translate(-858.021 -406.235)"/>
      <path id="Path_143" data-name="Path 143" d="M896.949,399.039l-1.463-2.141a.22.22,0,0,0-.3-.057l-12.121,8.183a.22.22,0,0,0-.062.3l1.5,2.294a.22.22,0,0,0,.311.062l12.083-8.336a.22.22,0,0,0,.057-.306Z" transform="translate(-869.847 -387.62)"/>
    </g>
    <path id="Path_144" data-name="Path 144" d="M950.548,400.384l-1.2-1.721a.478.478,0,0,0-.65-.119l-1.778,1.2a.478.478,0,0,0-.134.645l1.1,1.7a.478.478,0,0,0,.645.143l1.883-1.185a.478.478,0,0,0,.134-.664Z" transform="translate(-521.902 -241.806)" fill="#464a5f"/>
    <path id="Path_145" data-name="Path 145" d="M943.808,405.032l-1.2-1.716a.478.478,0,0,0-.645-.119l-1.783,1.2a.478.478,0,0,0-.134.645l1.1,1.7a.478.478,0,0,0,.645.143l1.883-1.181a.478.478,0,0,0,.134-.669Z" transform="translate(-518.384 -244.235)" fill="#464a5f"/>
    <path id="Path_146" data-name="Path 146" d="M936.808,409.91l-1.2-1.716a.478.478,0,0,0-.65-.12l-1.778,1.2a.478.478,0,0,0-.134.645l1.1,1.7a.478.478,0,0,0,.645.139l1.883-1.181a.478.478,0,0,0,.134-.669Z" transform="translate(-514.729 -246.781)" fill="#464a5f"/>
    <path id="Path_147" data-name="Path 147" d="M929.663,414.837l-1.2-1.721a.478.478,0,0,0-.645-.12l-1.783,1.2a.478.478,0,0,0-.124.669l1.1,1.7a.478.478,0,0,0,.645.143l1.878-1.185a.478.478,0,0,0,.129-.688Z" transform="translate(-510.997 -249.351)" fill="#464a5f"/>
    <path id="Path_148" data-name="Path 148" d="M922.551,419.772l-1.2-1.716a.478.478,0,0,0-.645-.119l-1.783,1.2a.478.478,0,0,0-.129.645l1.1,1.7a.478.478,0,0,0,.645.143l1.883-1.185a.478.478,0,0,0,.134-.664Z" transform="translate(-507.289 -251.93)" fill="#464a5f"/>
    <path id="Path_149" data-name="Path 149" d="M915.468,424.807l-1.5-2.132a.215.215,0,0,0-.3-.057l-2.189,1.477a.215.215,0,0,0-.062.3l1.372,2.108a.22.22,0,0,0,.3.067l2.313-1.434a.22.22,0,0,0,.062-.33Z" transform="translate(-503.461 -254.394)" fill="#464a5f"/>
    <path id="Path_150" data-name="Path 150" d="M908.348,429.737l-1.5-2.132a.22.22,0,0,0-.306-.057l-2.184,1.477a.215.215,0,0,0-.062.3l1.372,2.113a.215.215,0,0,0,.3.062l2.313-1.434a.225.225,0,0,0,.062-.33Z" transform="translate(-499.744 -256.968)" fill="#464a5f"/>
    <path id="Path_151" data-name="Path 151" d="M902.04,434.108l-1.5-2.137a.22.22,0,0,0-.3-.053l-2.189,1.453a.224.224,0,0,0-.062.306l1.372,2.108a.225.225,0,0,0,.3.067l2.313-1.434a.22.22,0,0,0,.062-.311Z" transform="translate(-496.451 -259.25)" fill="#464a5f"/>
    <path id="Path_152" data-name="Path 152" d="M894.978,439.019l-1.5-2.117a.22.22,0,0,0-.3-.053l-2.189,1.472a.22.22,0,0,0-.062.306l1.372,2.108a.225.225,0,0,0,.3.067l2.313-1.434a.22.22,0,0,0,.062-.349Z" transform="translate(-492.764 -261.823)" fill="#464a5f"/>
    <path id="Path_153" data-name="Path 153" d="M888.138,443.727l-1.5-2.132a.215.215,0,0,0-.3-.057l-2.189,1.477a.215.215,0,0,0-.062.3l1.372,2.108a.215.215,0,0,0,.3.067l2.313-1.434a.22.22,0,0,0,.062-.33Z" transform="translate(-489.193 -264.271)" fill="#464a5f"/>
    <path id="Path_154" data-name="Path 154" d="M881.3,448.468l-1.5-2.137a.22.22,0,0,0-.3-.053l-2.189,1.472a.225.225,0,0,0-.062.306l1.372,2.108a.225.225,0,0,0,.3.067l2.313-1.434a.22.22,0,0,0,.062-.33Z" transform="translate(-485.624 -266.746)" fill="#464a5f"/>
    <path id="Path_155" data-name="Path 155" d="M874.458,453.2l-1.5-2.132a.215.215,0,0,0-.3-.057l-2.189,1.477a.215.215,0,0,0-.062.3l1.372,2.108a.215.215,0,0,0,.3.067l2.313-1.434a.22.22,0,0,0,.062-.33Z" transform="translate(-482.052 -269.215)" fill="#464a5f"/>
    <path id="Path_156" data-name="Path 156" d="M946.041,393.907l-1.2-1.721a.478.478,0,0,0-.645-.119l-1.783,1.2a.478.478,0,0,0-.129.645l1.1,1.7a.478.478,0,0,0,.645.143l1.883-1.185a.478.478,0,0,0,.134-.664Z" transform="translate(-519.551 -238.425)" fill="#464a5f"/>
    <path id="Path_157" data-name="Path 157" d="M936.191,379.652l-1.2-1.716a.478.478,0,0,0-.645-.12l-1.783,1.2a.478.478,0,0,0-.129.645l1.1,1.7a.478.478,0,0,0,.64.143l1.883-1.181a.478.478,0,0,0,.134-.669Z" transform="translate(-514.409 -230.986)" fill="#464a5f"/>
    <path id="Path_158" data-name="Path 158" d="M939.331,398.511l-1.2-1.725a.478.478,0,0,0-.645-.12l-1.783,1.2a.478.478,0,0,0-.129.645l1.1,1.7a.478.478,0,0,0,.641.143l1.883-1.181a.478.478,0,0,0,.134-.66Z" transform="translate(-516.048 -240.826)" fill="#464a5f"/>
    <path id="Path_159" data-name="Path 159" d="M932.31,403.392l-1.185-1.716a.478.478,0,0,0-.645-.12l-1.783,1.2a.478.478,0,0,0-.129.65l1.1,1.7a.478.478,0,0,0,.645.139l1.883-1.181a.478.478,0,0,0,.115-.669Z" transform="translate(-512.392 -243.379)" fill="#464a5f"/>
    <path id="Path_160" data-name="Path 160" d="M925.168,408.324l-1.2-1.721a.478.478,0,0,0-.65-.12l-1.778,1.2a.478.478,0,0,0-.134.645l1.1,1.7a.478.478,0,0,0,.645.143l1.883-1.185a.478.478,0,0,0,.134-.664Z" transform="translate(-508.653 -245.951)" fill="#464a5f"/>
    <path id="Path_161" data-name="Path 161" d="M929.641,384.511l-1.2-1.725a.478.478,0,0,0-.645-.12l-1.783,1.2a.478.478,0,0,0-.129.645l1.1,1.7a.478.478,0,0,0,.641.143l1.883-1.181A.478.478,0,0,0,929.641,384.511Z" transform="translate(-510.99 -233.518)" fill="#464a5f"/>
    <path id="Path_162" data-name="Path 162" d="M922.6,389.4l-1.2-1.721a.478.478,0,0,0-.645-.119l-1.783,1.2a.478.478,0,0,0-.134.645l1.1,1.7a.478.478,0,0,0,.645.143l1.883-1.185a.478.478,0,0,0,.134-.664Z" transform="translate(-507.311 -236.071)" fill="#464a5f"/>
    <path id="Path_163" data-name="Path 163" d="M915.478,394.33l-1.2-1.716a.478.478,0,0,0-.65-.119l-1.778,1.2a.478.478,0,0,0-.134.645l1.1,1.7a.478.478,0,0,0,.645.143L915.339,395a.478.478,0,0,0,.139-.669Z" transform="translate(-503.594 -238.647)" fill="#464a5f"/>
    <path id="Path_164" data-name="Path 164" d="M918.041,413.262l-1.2-1.716a.478.478,0,0,0-.645-.12l-1.783,1.19a.478.478,0,0,0-.129.645l1.1,1.7a.478.478,0,0,0,.64.143l1.883-1.185A.478.478,0,0,0,918.041,413.262Z" transform="translate(-504.934 -248.532)" fill="#464a5f"/>
    <path id="Path_165" data-name="Path 165" d="M910.918,418.192l-1.2-1.716a.478.478,0,0,0-.645-.12l-1.783,1.224a.478.478,0,0,0-.134.645l1.1,1.7a.478.478,0,0,0,.645.143l1.883-1.181a.478.478,0,0,0,.134-.693Z" transform="translate(-501.214 -251.105)" fill="#464a5f"/>
    <path id="Path_166" data-name="Path 166" d="M903.859,423.227l-1.5-2.132a.215.215,0,0,0-.3-.057l-2.17,1.477a.215.215,0,0,0-.062.3l1.372,2.108a.215.215,0,0,0,.3.067l2.313-1.434a.225.225,0,0,0,.043-.33Z" transform="translate(-497.41 -253.57)" fill="#464a5f"/>
    <path id="Path_167" data-name="Path 167" d="M897.536,427.567l-1.5-2.137a.225.225,0,0,0-.306-.053l-2.189,1.472a.229.229,0,0,0-.062.306l1.376,2.108a.22.22,0,0,0,.3.067l2.309-1.434a.215.215,0,0,0,.067-.33Z" transform="translate(-494.099 -255.835)" fill="#464a5f"/>
    <path id="Path_168" data-name="Path 168" d="M890.47,432.488l-1.5-2.136a.22.22,0,0,0-.3-.053l-2.189,1.472a.224.224,0,0,0-.062.306l1.372,2.108a.225.225,0,0,0,.3.067l2.313-1.434a.21.21,0,0,0,.062-.33Z" transform="translate(-490.411 -258.404)" fill="#464a5f"/>
    <path id="Path_169" data-name="Path 169" d="M883.656,437.217l-1.482-2.132a.215.215,0,0,0-.3-.057l-2.189,1.477a.22.22,0,0,0-.062.3l1.372,2.108a.22.22,0,0,0,.3.067l2.313-1.434a.215.215,0,0,0,.048-.33Z" transform="translate(-486.862 -260.873)" fill="#464a5f"/>
    <path id="Path_170" data-name="Path 170" d="M927.6,396.624l-1.2-1.721a.478.478,0,0,0-.65-.12l-1.783,1.2a.478.478,0,0,0-.129.645l1.1,1.7a.478.478,0,0,0,.645.139l1.878-1.181a.478.478,0,0,0,.134-.664Z" transform="translate(-509.925 -239.843)" fill="#464a5f"/>
    <path id="Path_171" data-name="Path 171" d="M920.481,401.558l-1.2-1.716a.478.478,0,0,0-.645-.124l-1.783,1.2a.478.478,0,0,0-.129.645l1.1,1.7a.478.478,0,0,0,.64.143l1.883-1.185a.478.478,0,0,0,.134-.664Z" transform="translate(-506.208 -242.42)" fill="#464a5f"/>
    <path id="Path_172" data-name="Path 172" d="M913.384,406.495l-1.219-1.711a.478.478,0,0,0-.65-.119l-1.74,1.195a.478.478,0,0,0-.134.645l1.1,1.7a.478.478,0,0,0,.645.143l1.883-1.181a.478.478,0,0,0,.11-.669Z" transform="translate(-502.514 -245.001)" fill="#464a5f"/>
    <path id="Path_173" data-name="Path 173" d="M906.231,411.422l-1.2-1.716a.478.478,0,0,0-.645-.119l-1.783,1.2a.478.478,0,0,0-.129.645l1.1,1.7a.478.478,0,0,0,.641.143l1.883-1.181a.478.478,0,0,0,.134-.669Z" transform="translate(-498.769 -247.571)" fill="#464a5f"/>
    <path id="Path_174" data-name="Path 174" d="M899.155,416.457l-1.5-2.132a.22.22,0,0,0-.306-.057l-2.189,1.477a.22.22,0,0,0-.062.3l1.372,2.113a.22.22,0,0,0,.306.062l2.309-1.434a.22.22,0,0,0,.067-.33Z" transform="translate(-494.943 -250.035)" fill="#464a5f"/>
    <path id="Path_175" data-name="Path 175" d="M892.865,420.827l-1.5-2.132a.215.215,0,0,0-.3-.057l-2.175,1.472a.225.225,0,0,0-.062.306l1.372,2.108a.225.225,0,0,0,.3.067l2.313-1.434a.22.22,0,0,0,.048-.33Z" transform="translate(-491.669 -252.317)" fill="#464a5f"/>
    <path id="Path_176" data-name="Path 176" d="M885.79,425.717l-1.5-2.137a.225.225,0,0,0-.306-.053L881.8,425a.225.225,0,0,0-.062.306l1.372,2.108a.22.22,0,0,0,.3.067l2.313-1.434a.22.22,0,0,0,.062-.33Z" transform="translate(-487.968 -254.869)" fill="#464a5f"/>
    <path id="Path_177" data-name="Path 177" d="M878.948,430.447l-1.5-2.132a.22.22,0,0,0-.306-.057l-2.184,1.477a.215.215,0,0,0-.062.3l1.372,2.113a.215.215,0,0,0,.3.062l2.313-1.434a.225.225,0,0,0,.062-.33Z" transform="translate(-484.396 -257.338)" fill="#464a5f"/>
    <path id="Path_178" data-name="Path 178" d="M876.795,441.957l-1.5-2.137a.225.225,0,0,0-.306-.053L872.8,441.24a.225.225,0,0,0-.062.306l1.372,2.108a.225.225,0,0,0,.3.067l2.313-1.434a.215.215,0,0,0,.067-.33Z" transform="translate(-483.27 -263.347)" fill="#464a5f"/>
    <path id="Path_179" data-name="Path 179" d="M869.955,446.687l-1.5-2.132a.22.22,0,0,0-.306-.057l-2.189,1.477a.22.22,0,0,0-.062.3l1.372,2.108a.22.22,0,0,0,.306.067l2.309-1.434a.215.215,0,0,0,.067-.33Z" transform="translate(-479.699 -265.816)" fill="#464a5f"/>
    <path id="Path_180" data-name="Path 180" d="M880.754,418.458l-1.41-2.012a.3.3,0,0,0-.406-.072l-2.079,1.391a.3.3,0,0,0-.081.406l1.29,1.988a.3.3,0,0,0,.406.086l2.18-1.372a.291.291,0,0,0,.1-.416Z" transform="translate(-485.37 -251.128)" fill="#464a5f"/>
    <path id="Path_181" data-name="Path 181" d="M873.93,423.188l-1.41-2.007a.292.292,0,0,0-.406-.076l-2.065,1.4a.292.292,0,0,0-.081.4l1.291,1.988a.3.3,0,0,0,.406.091l2.184-1.372a.3.3,0,0,0,.081-.421Z" transform="translate(-481.815 -253.597)" fill="#464a5f"/>
    <path id="Path_182" data-name="Path 182" d="M867.064,427.929l-1.434-2.012a.292.292,0,0,0-.4-.072l-2.07,1.391a.3.3,0,0,0-.081.406l1.29,1.988a.3.3,0,0,0,.406.086l2.184-1.372a.292.292,0,0,0,.105-.416Z" transform="translate(-478.218 -256.072)" fill="#464a5f"/>
    <path id="Path_183" data-name="Path 183" d="M860.268,432.7l-1.5-2.136a.225.225,0,0,0-.306-.053l-2.189,1.472a.225.225,0,0,0-.057.306l1.372,2.108a.22.22,0,0,0,.3.067l2.313-1.434a.22.22,0,0,0,.062-.33Z" transform="translate(-474.644 -258.513)" fill="#464a5f"/>
    <path id="Path_184" data-name="Path 184" d="M937.8,386.772l-1.276-1.845a.478.478,0,0,0-.65-.115l-5.086,3.542a.478.478,0,0,0-.124.64l1.224,1.883a.478.478,0,0,0,.664.129l5.128-3.589A.478.478,0,0,0,937.8,386.772Z" transform="translate(-513.486 -234.636)" fill="#464a5f"/>
    <path id="Path_185" data-name="Path 185" d="M868.419,434.918l-1.587-2.242a.215.215,0,0,0-.306-.053l-5.458,3.824a.22.22,0,0,0-.057.3l1.5,2.3a.22.22,0,0,0,.311.062l5.549-3.886A.225.225,0,0,0,868.419,434.918Z" transform="translate(-477.145 -259.616)" fill="#464a5f"/>
    <path id="Path_186" data-name="Path 186" d="M897.638,399.171l-1.434-2.127a.225.225,0,0,0-.306-.062l-12.116,8.173a.215.215,0,0,0-.062.3l1.491,2.294a.22.22,0,0,0,.311.062l12.083-8.336A.22.22,0,0,0,897.638,399.171Z" transform="translate(-489 -241.013)" fill="#464a5f"/>
    <path id="Path_187" data-name="Path 187" d="M884.2,375.526l-6.443-9.363a1.2,1.2,0,0,0-1.654-.315l-17.747,11.916a1.2,1.2,0,0,0-.32,1.668l6.567,9.631a1.195,1.195,0,0,0,1.668.315l17.622-12.193a1.19,1.19,0,0,0,.306-1.659Z" transform="translate(-475.502 -224.671)" opacity="0.1"/>
    <path id="Path_188" data-name="Path 188" d="M884.838,375.648l-6.443-9.363a1.2,1.2,0,0,0-1.654-.315l-17.723,11.925a1.195,1.195,0,0,0-.325,1.668l6.548,9.621a1.195,1.195,0,0,0,1.668.315l17.632-12.193a1.19,1.19,0,0,0,.3-1.659Z" transform="translate(-475.846 -224.736)" fill="#939498"/>
    <path id="Path_189" data-name="Path 189" d="M934.393,413.12l-13.67-4.56L876.88,439.016l13.569,4.421a2.485,2.485,0,0,0,2.194-.325l41.874-29.117a.478.478,0,0,0-.124-.875Z" transform="translate(-485.449 -247.075)" fill="#6a6aa0"/>
  </g>
</svg>
