<svg xmlns="http://www.w3.org/2000/svg" xmlns:xlink="http://www.w3.org/1999/xlink" width="112.722" height="31.876" viewBox="0 0 112.722 31.876">
  <defs>
    <clipPath id="clip-path">
      <rect width="112.722" height="31.876" fill="none"/>
    </clipPath>
  </defs>
  <g id="Component_3" data-name="Component 3" clip-path="url(#clip-path)">
    <g id="Group_7" data-name="Group 7" transform="translate(0 4.818)">
      <g id="Group_1" data-name="Group 1" transform="translate(0 3.596)">
        <path id="Path_1" data-name="Path 1" d="M423.526,387.7v5.515h10.311v3.876H423.526v7.6H418.37V383.828h16.836V387.7Z" transform="translate(-418.37 -381.234)" fill="#5b72f6"/>
        <path id="Path_2" data-name="Path 2" d="M502.3,376.2a2.417,2.417,0,0,1,0-3.7,3.279,3.279,0,0,1,2.228-.745,3.366,3.366,0,0,1,2.228.715,2.235,2.235,0,0,1,.859,1.789,2.456,2.456,0,0,1-.859,1.923,3.238,3.238,0,0,1-2.228.76A3.276,3.276,0,0,1,502.3,376.2Zm-.255,2.981h4.965v16.038h-4.965Z" transform="translate(-482.378 -371.763)" fill="#5b72f6"/>
        <path id="Path_3" data-name="Path 3" d="M561.366,406.974a6.833,6.833,0,0,1,1.957,5.306v9.182h-4.965V413a4,4,0,0,0-.891-2.847,3.387,3.387,0,0,0-2.578-.939A4.1,4.1,0,0,0,551.9,410.3a4.328,4.328,0,0,0-1.114,3.235v7.93h-4.965V405.424h4.742V407.3a6.621,6.621,0,0,1,2.451-1.565,9.051,9.051,0,0,1,3.214-.552A7.323,7.323,0,0,1,561.366,406.974Z" transform="translate(-516.572 -398.001)" fill="#5b72f6"/>
      </g>
      <g id="Group_2" data-name="Group 2" transform="translate(71.953 4.671)">
        <path id="Path_4" data-name="Path 4" d="M730.482,419.533a8.2,8.2,0,0,1-3.357-2.936,8.118,8.118,0,0,1,0-8.526,8.206,8.206,0,0,1,3.357-2.937,11.622,11.622,0,0,1,9.691,0,8.234,8.234,0,0,1,3.342,2.937,8.118,8.118,0,0,1,0,8.526,8.232,8.232,0,0,1-3.342,2.936,11.622,11.622,0,0,1-9.691,0Zm7.988-3.965a4.882,4.882,0,0,0,0-6.469,4.28,4.28,0,0,0-3.135-1.207,4.443,4.443,0,1,0,0,8.884A4.279,4.279,0,0,0,738.47,415.568Z" transform="translate(-725.915 -398.233)" fill="#23ce95"/>
        <path id="Path_5" data-name="Path 5" d="M836.764,383.765a7.652,7.652,0,0,1,3.071,2.892,9,9,0,0,1,0,8.675,7.648,7.648,0,0,1-3.071,2.892,9.194,9.194,0,0,1-4.344,1.028,6.8,6.8,0,0,1-5.379-2.087v1.848H822.3v-22.12h4.965v7.781a6.846,6.846,0,0,1,5.156-1.938A9.2,9.2,0,0,1,836.764,383.765ZM834.7,394.229a4.882,4.882,0,0,0,0-6.469,4.673,4.673,0,0,0-6.27,0,4.881,4.881,0,0,0,0,6.469,4.673,4.673,0,0,0,6.27,0Z" transform="translate(-800.181 -376.894)" fill="#23ce95"/>
      </g>
      <g id="Group_5" data-name="Group 5" transform="translate(50.71 0)">
        <g id="Group_3" data-name="Group 3" transform="translate(0 10.849)">
          <path id="Path_6" data-name="Path 6" d="M647.881,407.021a9,9,0,0,0-4.895-1.425,8.381,8.381,0,0,0-8.641,8.094.492.492,0,0,0,0,.066c0,.139.006.278.015.413s.019.275.034.408.034.269.059.4a7.488,7.488,0,0,0,.3,1.168c.053.15.108.3.17.451.04.1.08.191.123.286.058.13.123.257.188.385.114.211.234.419.364.619a1.906,1.906,0,0,0,.111.162c.043.066.089.133.136.2a7.071,7.071,0,0,0,.5.618c.089.1.179.2.271.292s.188.188.287.278.2.179.3.266.207.17.312.252a8.216,8.216,0,0,0,.707.489q.153.1.306.182a8.9,8.9,0,0,0,2.722,1c.111.023.222.04.336.058a9.279,9.279,0,0,0,2.808,0c.114-.017.225-.035.336-.058a8.9,8.9,0,0,0,2.722-1q.153-.087.306-.182a8.217,8.217,0,0,0,.707-.489c.105-.081.21-.165.312-.252s.2-.176.3-.266.194-.185.287-.278.182-.194.271-.292a7.071,7.071,0,0,0,.5-.618c.046-.064.093-.13.136-.2a1.908,1.908,0,0,0,.111-.162c.13-.2.25-.408.364-.619.006-.014.015-.029.022-.043.059-.113.114-.225.167-.341.043-.1.083-.191.123-.286.062-.147.117-.3.17-.451a7.474,7.474,0,0,0,.3-1.168c.025-.133.043-.266.059-.4s.028-.272.034-.408.015-.275.015-.413a.492.492,0,0,0,0-.066A7.949,7.949,0,0,0,647.881,407.021Zm.278,6.981a2.128,2.128,0,0,1-.025.246c-.012.089-.025.179-.04.269-.012.067-.025.13-.04.194v.006a.5.5,0,0,1-.015.058c0,.012-.006.023-.009.032-.009.035-.019.069-.025.1s-.012.041-.019.058a.115.115,0,0,1,0,.014,2.769,2.769,0,0,1-.1.309,3.718,3.718,0,0,1-.222.5.3.3,0,0,0-.028.055c-.037.066-.074.13-.111.194a2.261,2.261,0,0,1-.123.2,5.631,5.631,0,0,1-.435.564,4.434,4.434,0,0,1-.333.338,2.227,2.227,0,0,1-.179.159c-.123.1-.253.2-.386.295-.068.046-.133.09-.2.13a3.806,3.806,0,0,1-.426.24,5.26,5.26,0,0,1-1.185.431c-.074.02-.151.035-.228.049a5.523,5.523,0,0,1-2.074,0c-.077-.014-.154-.029-.228-.049a5.261,5.261,0,0,1-1.185-.431,3.811,3.811,0,0,1-.426-.24c-.068-.04-.133-.084-.2-.13-.133-.092-.262-.191-.386-.295a2.216,2.216,0,0,1-.179-.159,4.434,4.434,0,0,1-.333-.338,5.631,5.631,0,0,1-.435-.564,2.261,2.261,0,0,1-.123-.2c-.037-.064-.074-.127-.111-.194a.307.307,0,0,0-.028-.055,4.478,4.478,0,0,1-.241-.555c-.034-.1-.065-.191-.092-.289a2.307,2.307,0,0,1-.074-.295v0a3.583,3.583,0,0,1-.068-.4,2.1,2.1,0,0,1-.025-.246c0-.081-.009-.162-.009-.246a.492.492,0,0,1,0-.066,5.028,5.028,0,0,1,5.185-4.857,5.167,5.167,0,0,1,4.895,3.255,4.553,4.553,0,0,1,.29,1.6.492.492,0,0,1,0,.066C648.168,413.841,648.162,413.922,648.159,414Z" transform="translate(-634.345 -405.596)" fill="#5b72f6"/>
          <path id="Path_7" data-name="Path 7" d="M651.634,443.56c0,.139-.006.278-.015.413s-.019.275-.034.408-.034.269-.059.4a7.489,7.489,0,0,1-.3,1.168c-.053.15-.108.3-.17.451-.04.1-.08.191-.124.286-.052.116-.108.229-.167.341-.006.015-.015.029-.022.043-.114.211-.235.419-.364.619a1.889,1.889,0,0,1-.111.162c-.043.066-.089.133-.136.2a7.117,7.117,0,0,1-.5.618c-.09.1-.179.2-.271.292s-.188.188-.287.277-.2.179-.3.266-.207.17-.312.251a8.184,8.184,0,0,1-.707.489q-.153.1-.306.182a8.9,8.9,0,0,1-2.722,1c-.111.023-.222.04-.336.058a9.284,9.284,0,0,1-2.808,0c-.114-.017-.225-.035-.336-.058a8.9,8.9,0,0,1-2.722-1q-.153-.087-.306-.182a8.194,8.194,0,0,1-.707-.489c-.105-.081-.21-.165-.312-.251s-.2-.176-.3-.266-.194-.185-.287-.277-.182-.194-.271-.292a7.1,7.1,0,0,1-.5-.618c-.046-.064-.093-.13-.136-.2a1.931,1.931,0,0,1-.111-.162c-.13-.2-.25-.408-.364-.619-.065-.127-.13-.254-.188-.385-.043-.1-.084-.191-.124-.286-.062-.147-.117-.3-.17-.451a7.482,7.482,0,0,1-.3-1.168c-.025-.133-.043-.266-.059-.4s-.028-.272-.034-.408-.015-.275-.015-.413h3.456c0,.084.006.165.009.246s.015.165.025.246c.019.136.04.272.068.4v0q.032.152.074.295c.028.1.058.194.092.289a4.475,4.475,0,0,0,.241.555.306.306,0,0,1,.028.055c.037.066.074.13.111.194s.08.133.123.2a5.638,5.638,0,0,0,.435.564,4.451,4.451,0,0,0,.333.338c.059.055.117.107.179.159.123.1.253.2.386.295.068.046.133.09.2.13a4.314,4.314,0,0,0,.426.24,5.258,5.258,0,0,0,1.185.431c.074.02.151.035.228.049a5.522,5.522,0,0,0,2.074,0c.077-.014.154-.029.228-.049a5.258,5.258,0,0,0,1.185-.431,4.314,4.314,0,0,0,.426-.24c.068-.04.133-.084.2-.13.133-.092.262-.191.386-.295.062-.052.12-.1.179-.159a4.417,4.417,0,0,0,.333-.338,5.629,5.629,0,0,0,.435-.564c.043-.066.083-.133.123-.2s.074-.127.111-.194a.31.31,0,0,1,.028-.055,4.814,4.814,0,0,0,.222-.514c.031-.084.059-.168.087-.255.006-.014.009-.029.015-.043a.117.117,0,0,0,0-.014c.006-.017.012-.038.019-.058s.015-.069.025-.1c0-.009.006-.02.009-.032s0-.012,0-.02a.275.275,0,0,1,.012-.038v-.006c.015-.064.028-.127.04-.194.015-.09.028-.179.04-.269s.018-.162.025-.246.009-.162.009-.246Z" transform="translate(-634.355 -435.399)" fill="#23ce95"/>
        </g>
        <g id="Group_4" data-name="Group 4" transform="translate(13.077)">
          <path id="Path_8" data-name="Path 8" d="M697.078,377v14.362a.317.317,0,0,1,0,.065c0,.133-.007.267-.016.4s-.018.264-.032.393-.034.26-.06.387a6.948,6.948,0,0,1-.3,1.129c-.053.146-.108.294-.17.436q-.059.139-.124.277-.079.164-.165.329h-2.88V392.9c.03-.08.057-.161.087-.245l.014-.041s0-.009,0-.015.011-.037.018-.056a.884.884,0,0,1,.023-.1.116.116,0,0,0,.009-.03c0-.006,0-.011,0-.019s.007-.021.011-.036v-.006c.016-.06.028-.123.041-.187.014-.086.028-.172.039-.258s.018-.157.025-.239.009-.157.009-.236a.62.62,0,0,0,0-.065,4.269,4.269,0,0,0-.289-1.548V377Z" transform="translate(-692.871 -372.298)" fill="#23ce95"/>
          <line id="Line_1" data-name="Line 1" x1="3.747" transform="translate(0.46 4.702)" fill="none"/>
          <path id="Path_9" data-name="Path 9" d="M697.416,356.708a1.812,1.812,0,0,1-.632,1.417,2.39,2.39,0,0,1-1.648.562,2.422,2.422,0,0,1-1.645-.551,1.787,1.787,0,0,1,0-2.728,2.422,2.422,0,0,1,1.645-.551,2.484,2.484,0,0,1,1.648.529A1.65,1.65,0,0,1,697.416,356.708Z" transform="translate(-692.859 -354.857)" fill="#23ce95"/>
        </g>
      </g>
      <text transform="translate(52.789 27.027)" font-size="10" font-family="ArialMT, Arial"/>    </g>
  </g>
</svg>
